<svg width="16" height="20" viewBox="0 0 16 20" fill="none" xmlns="http://www.w3.org/2000/svg">
<path d="M13.2201 0C14.216 0 15.0512 0.813008 15.0833 1.85366V18.1138C15.0833 19.1545 14.2481 20 13.2201 20H2.77985C1.75188 20 0.916656 19.1545 0.916656 18.1138V1.85366C0.916656 0.813008 1.75188 0 2.74772 0H13.2201ZM13.188 1.10569H2.74772C2.33011 1.10569 2.00887 1.46341 2.00887 1.85366V18.1138C2.00887 18.5366 2.36223 18.8618 2.74772 18.8618H13.188C13.6056 18.8618 13.9269 18.5041 13.9269 18.1138V1.85366C13.9269 1.43089 13.5735 1.10569 13.188 1.10569ZM11.4854 8.68293C12.0637 8.68293 12.5777 9.17073 12.5777 9.78862C12.5777 10.4065 12.0958 10.8943 11.4854 10.8943C10.8751 10.8943 10.3932 10.4065 10.3932 9.78862C10.3932 9.17073 10.8751 8.68293 11.4854 8.68293Z" fill="#45525B"/>
</svg>
