<svg width="20" height="20" viewBox="0 0 20 20" fill="none" xmlns="http://www.w3.org/2000/svg">
<path d="M19.4156 9.10963H18.0519H3.83117V2.7787C3.83117 2.35004 4.15584 2.0203 4.57792 2.0203H7.07792V2.97654C6.3961 3.07546 5.84416 3.66898 5.84416 4.3944V5.84524C5.84416 6.17498 6.1039 6.43877 6.42857 6.43877H8.73377C9.05844 6.43877 9.31818 6.17498 9.31818 5.84524V4.3944C9.31818 3.73493 8.86364 3.17438 8.24675 3.00951V1.42678C8.24675 1.09704 7.98701 0.833252 7.66234 0.833252H4.57792C3.53896 0.833252 2.69481 1.69057 2.69481 2.74572V9.07666H2.17532H1.94805H0.584416C0.25974 9.07666 0 9.34045 0 9.67018C0 9.99992 0.25974 10.2637 0.584416 10.2637H1.36364V12.9016C1.36364 14.847 2.79221 16.4627 4.64286 16.7265L3.92857 18.3422C3.7987 18.639 3.92857 18.9687 4.22078 19.1006C4.28571 19.1336 4.38312 19.1666 4.44805 19.1666C4.67532 19.1666 4.87013 19.0347 4.96753 18.8368L5.87662 16.7925H14.8052C14.8701 16.7925 14.9351 16.7925 15.0325 16.7925L15.9416 18.8368C16.039 19.0677 16.2338 19.1666 16.461 19.1666C16.526 19.1666 16.6234 19.1666 16.6883 19.1006C16.9805 18.9687 17.1104 18.639 16.9805 18.3422L16.1688 16.5287C17.5974 15.9681 18.6364 14.5503 18.6364 12.9016V10.2637H19.4156C19.7403 10.2637 20 9.99992 20 9.67018C20 9.37342 19.7403 9.10963 19.4156 9.10963ZM8.14935 5.28469H6.98052V4.3944C6.98052 4.22953 7.11039 4.09764 7.27273 4.09764H7.85714C8.01948 4.09764 8.14935 4.22953 8.14935 4.3944V5.28469ZM17.5 12.9016C17.5 14.3854 16.2987 15.6384 14.8052 15.6384H5.19481C3.73377 15.6384 2.5 14.4184 2.5 12.9016V10.2637H17.5V12.9016Z" fill="#45525B"/>
</svg>
