<svg width="522" height="23" viewBox="0 0 522 23" fill="none" xmlns="http://www.w3.org/2000/svg">
<g clip-path="url(#clip0_4_380)">
<path d="M17.5927 9.48942L11.9726 8.62002L9.42655 3.27945C9.24025 2.90685 8.74346 2.90685 8.55716 3.27945L6.01107 8.65107L0.422094 9.48942C0.0184458 9.55152 -0.136803 10.0794 0.173695 10.3588L4.24123 14.5505L3.27868 20.419C3.21658 20.8226 3.62023 21.1642 3.99283 20.9158L9.05395 18.1523L14.084 20.9158C14.4256 21.1021 14.8603 20.7916 14.7671 20.419L13.8046 14.5505L17.8721 10.3588C18.1205 10.0794 17.9963 9.55152 17.5927 9.48942Z" fill="#52503B"/>
</g>
<g clip-path="url(#clip1_4_380)">
<path d="M57.5927 9.48942L51.9726 8.62002L49.4266 3.27945C49.2403 2.90685 48.7435 2.90685 48.5572 3.27945L46.0111 8.65107L40.4221 9.48942C40.0184 9.55152 39.8632 10.0794 40.1737 10.3588L44.2412 14.5505L43.2787 20.419C43.2166 20.8226 43.6202 21.1642 43.9928 20.9158L49.054 18.1523L54.084 20.9158C54.4256 21.1021 54.8603 20.7916 54.7671 20.419L53.8046 14.5505L57.8721 10.3588C58.1205 10.0794 57.9963 9.55152 57.5927 9.48942Z" fill="#52503B"/>
</g>
<g clip-path="url(#clip2_4_380)">
<path d="M97.5927 9.48942L91.9726 8.62002L89.4266 3.27945C89.2403 2.90685 88.7435 2.90685 88.5572 3.27945L86.0111 8.65107L80.4221 9.48942C80.0184 9.55152 79.8632 10.0794 80.1737 10.3588L84.2412 14.5505L83.2787 20.419C83.2166 20.8226 83.6202 21.1642 83.9928 20.9158L89.054 18.1523L94.084 20.9158C94.4256 21.1021 94.8603 20.7916 94.7671 20.419L93.8046 14.5505L97.8721 10.3588C98.1205 10.0794 97.9963 9.55152 97.5927 9.48942Z" fill="#52503B"/>
</g>
<g clip-path="url(#clip3_4_380)">
<path d="M37.5927 9.48942L31.9726 8.62002L29.4266 3.27945C29.2403 2.90685 28.7435 2.90685 28.5572 3.27945L26.0111 8.65107L20.4221 9.48942C20.0184 9.55152 19.8632 10.0794 20.1737 10.3588L24.2412 14.5505L23.2787 20.419C23.2166 20.8226 23.6202 21.1642 23.9928 20.9158L29.054 18.1523L34.084 20.9158C34.4256 21.1021 34.8603 20.7916 34.7671 20.419L33.8046 14.5505L37.8721 10.3588C38.1205 10.0794 37.9963 9.55152 37.5927 9.48942Z" fill="#52503B"/>
</g>
<g clip-path="url(#clip4_4_380)">
<path d="M77.5927 9.48942L71.9726 8.62002L69.4266 3.27945C69.2403 2.90685 68.7435 2.90685 68.5572 3.27945L66.0111 8.65107L60.4221 9.48942C60.0184 9.55152 59.8632 10.0794 60.1737 10.3588L64.2412 14.5505L63.2787 20.419C63.2166 20.8226 63.6202 21.1642 63.9928 20.9158L69.054 18.1523L74.084 20.9158C74.4256 21.1021 74.8603 20.7916 74.7671 20.419L73.8046 14.5505L77.8721 10.3588C78.1205 10.0794 77.9963 9.55152 77.5927 9.48942Z" fill="#52503B"/>
</g>
<defs>
<clipPath id="clip0_4_380">
<rect width="18" height="18" fill="white" transform="translate(0 3)"/>
</clipPath>
<clipPath id="clip1_4_380">
<rect width="18" height="18" fill="white" transform="translate(40 3)"/>
</clipPath>
<clipPath id="clip2_4_380">
<rect width="18" height="18" fill="white" transform="translate(80 3)"/>
</clipPath>
<clipPath id="clip3_4_380">
<rect width="18" height="18" fill="white" transform="translate(20 3)"/>
</clipPath>
<clipPath id="clip4_4_380">
<rect width="18" height="18" fill="white" transform="translate(60 3)"/>
</clipPath>
</defs>
</svg>
