<svg width="522" height="23" viewBox="0 0 522 23" fill="none" xmlns="http://www.w3.org/2000/svg">
<g clip-path="url(#clip0_4_404)">
<path d="M17.5927 9.48942L11.9726 8.62002L9.42655 3.27945C9.24025 2.90685 8.74346 2.90685 8.55716 3.27945L6.01107 8.65107L0.422094 9.48942C0.0184458 9.55152 -0.136803 10.0794 0.173695 10.3588L4.24123 14.5505L3.27868 20.419C3.21658 20.8226 3.62023 21.1642 3.99283 20.9158L9.05395 18.1523L14.084 20.9158C14.4256 21.1021 14.8603 20.7916 14.7671 20.419L13.8046 14.5505L17.8721 10.3588C18.1205 10.0794 17.9963 9.55152 17.5927 9.48942Z" fill="#52503B"/>
</g>
<g clip-path="url(#clip1_4_404)">
<path d="M57.5927 9.48942L51.9726 8.62002L49.4266 3.27945C49.2403 2.90685 48.7435 2.90685 48.5572 3.27945L46.0111 8.65107L40.4221 9.48942C40.0184 9.55152 39.8632 10.0794 40.1737 10.3588L44.2412 14.5505L43.2787 20.419C43.2166 20.8226 43.6202 21.1642 43.9928 20.9158L49.054 18.1523L54.084 20.9158C54.4256 21.1021 54.8603 20.7916 54.7671 20.419L53.8046 14.5505L57.8721 10.3588C58.1205 10.0794 57.9963 9.55152 57.5927 9.48942Z" fill="#52503B"/>
</g>
<g clip-path="url(#clip2_4_404)">
<path d="M97.9322 9.78C97.8122 9.42 97.5122 9.15 97.1522 9.09L92.1422 8.31L89.8922 3.57C89.7122 3.21 89.3822 3 88.9922 3C88.6022 3 88.2722 3.21 88.1222 3.57L85.8722 8.34L80.8322 9.15C80.4722 9.21 80.1722 9.48 80.0522 9.84C79.9322 10.2 80.0222 10.62 80.2922 10.89L83.9222 14.61L83.0822 19.8C83.0222 20.19 83.1722 20.58 83.5022 20.82C83.6822 20.94 83.8622 21 84.0422 21C84.1922 21 84.3722 20.97 84.4922 20.88L88.9922 18.42L93.4622 20.85C93.7922 21.03 94.1822 21 94.4822 20.79C94.8122 20.55 94.9622 20.16 94.9022 19.77L94.0622 14.55L97.6922 10.83C97.9622 10.56 98.0522 10.14 97.9322 9.78ZM97.2422 10.41L93.6422 14.13C93.5222 14.25 93.4622 14.46 93.4922 14.64L94.3322 19.86C94.3622 20.07 94.2722 20.22 94.1522 20.28C94.0922 20.31 93.9422 20.4 93.7622 20.31L89.2622 17.88C89.0822 17.79 88.9022 17.79 88.7222 17.88L84.2222 20.34C84.0422 20.43 83.8922 20.37 83.8322 20.31C83.7422 20.25 83.6222 20.07 83.6522 19.89L84.5222 14.7C84.5522 14.52 84.4922 14.31 84.3722 14.19L80.7422 10.47C80.5922 10.32 80.5922 10.14 80.6222 10.02C80.6822 9.87 80.7722 9.78 80.9222 9.75L85.9622 8.94C86.1422 8.91 86.3222 8.79 86.3822 8.61L88.6322 3.84C88.7222 3.69 88.8422 3.6 88.9922 3.6C89.1422 3.6 89.2622 3.69 89.3222 3.84L91.5722 8.61C91.6622 8.79 91.8122 8.91 91.9922 8.94L97.0022 9.72C97.1522 9.75 97.2722 9.84 97.3022 9.99C97.3922 10.08 97.3922 10.29 97.2422 10.41Z" fill="#52503B"/>
</g>
<g clip-path="url(#clip3_4_404)">
<path d="M37.5927 9.48942L31.9726 8.62002L29.4266 3.27945C29.2403 2.90685 28.7435 2.90685 28.5572 3.27945L26.0111 8.65107L20.4221 9.48942C20.0184 9.55152 19.8632 10.0794 20.1737 10.3588L24.2412 14.5505L23.2787 20.419C23.2166 20.8226 23.6202 21.1642 23.9928 20.9158L29.054 18.1523L34.084 20.9158C34.4256 21.1021 34.8603 20.7916 34.7671 20.419L33.8046 14.5505L37.8721 10.3588C38.1205 10.0794 37.9963 9.55152 37.5927 9.48942Z" fill="#52503B"/>
</g>
<g clip-path="url(#clip4_4_404)">
<path d="M77.5927 9.48942L71.9726 8.62002L69.4266 3.27945C69.2403 2.90685 68.7435 2.90685 68.5572 3.27945L66.0111 8.65107L60.4221 9.48942C60.0184 9.55152 59.8632 10.0794 60.1737 10.3588L64.2412 14.5505L63.2787 20.419C63.2166 20.8226 63.6202 21.1642 63.9928 20.9158L69.054 18.1523L74.084 20.9158C74.4256 21.1021 74.8603 20.7916 74.7671 20.419L73.8046 14.5505L77.8721 10.3588C78.1205 10.0794 77.9963 9.55152 77.5927 9.48942Z" fill="#52503B"/>
</g>
<defs>
<clipPath id="clip0_4_404">
<rect width="18" height="18" fill="white" transform="translate(0 3)"/>
</clipPath>
<clipPath id="clip1_4_404">
<rect width="18" height="18" fill="white" transform="translate(40 3)"/>
</clipPath>
<clipPath id="clip2_4_404">
<rect width="18" height="18" fill="white" transform="translate(80 3)"/>
</clipPath>
<clipPath id="clip3_4_404">
<rect width="18" height="18" fill="white" transform="translate(20 3)"/>
</clipPath>
<clipPath id="clip4_4_404">
<rect width="18" height="18" fill="white" transform="translate(60 3)"/>
</clipPath>
</defs>
</svg>
