<svg width="128" height="34" viewBox="0 0 128 34" fill="none" xmlns="http://www.w3.org/2000/svg">
<path fill-rule="evenodd" clip-rule="evenodd" d="M31.4178 7.26246C34.4941 7.26246 36.9486 8.03313 38.7829 9.5759C40.6172 11.118 41.6257 13.1994 41.814 15.8159H35.5656C35.4732 14.7874 35.0463 13.9694 34.2857 13.3624C33.5229 12.7541 32.5044 12.4517 31.2316 12.4517C30.0498 12.4517 29.1416 12.6686 28.5042 13.106C27.8667 13.5413 27.5487 14.1504 27.5487 14.9282C27.5487 15.8009 27.9849 16.4631 28.853 16.9156C29.7239 17.3666 31.0762 17.827 32.9105 18.2946C34.7748 18.7607 36.3133 19.2455 37.5252 19.744C38.7371 20.2424 39.7842 21.0124 40.6702 22.0567C41.5555 23.101 42.0146 24.48 42.0454 26.1938C42.0454 27.6884 41.6335 29.0294 40.8106 30.2145C39.9869 31.3974 38.8058 32.3261 37.2674 32.9955C35.7289 33.6649 33.9347 33.9996 31.8841 33.9996C29.7698 33.9996 27.8746 33.6175 26.1979 32.8547C24.519 32.0919 23.1897 31.0555 22.2106 29.7469C21.2322 28.4383 20.6972 26.9889 20.6027 25.3987H27.1763C27.3002 26.397 27.7894 27.223 28.6446 27.8773C29.4983 28.5316 30.5627 28.8584 31.8368 28.8584C33.0795 28.8584 34.0522 28.6092 34.7505 28.1107C35.4503 27.613 35.7991 26.9738 35.7991 26.1938C35.7991 25.3527 35.3722 24.7214 34.517 24.3012C33.6632 23.8789 32.3038 23.4206 30.4387 22.9222C28.5121 22.4546 26.9356 21.9712 25.7087 21.4728C24.4796 20.9743 23.4232 20.2101 22.5372 19.183C21.6512 18.1538 21.2093 16.7676 21.2093 15.0209C21.2093 13.5887 21.6211 12.2801 22.4441 11.0957C23.2678 9.9106 24.4488 8.9769 25.9873 8.29026C27.5258 7.60506 29.335 7.26246 31.4178 7.26246ZM70.0143 7.26275C71.9395 7.26275 73.6255 7.65275 75.0709 8.4306C76.5163 9.21061 77.6737 10.1917 78.5439 11.3747V7.68291H85.1161V33.5797H78.5439V29.7924C77.7059 31.0077 76.5471 32.0139 75.0709 32.8069C73.5954 33.602 71.8944 33.9999 69.967 33.9999C67.7918 33.9999 65.8114 33.4389 64.0244 32.3163C62.2359 31.1959 60.8228 29.6136 59.7814 27.5731C58.74 25.5318 58.2207 23.1868 58.2207 20.5372C58.2207 17.92 58.74 15.5993 59.7814 13.5717C60.8228 11.5478 62.2359 9.99061 64.0244 8.89889C65.8114 7.8086 67.8068 7.26275 70.0143 7.26275ZM115.275 7.26289C117.729 7.26289 119.929 7.79151 121.871 8.85091C123.811 9.91031 125.32 11.415 126.393 13.3629C127.465 15.31 128 17.5452 128 20.0712C128 21.0049 127.937 21.846 127.814 22.5951H108.935C109.091 24.4647 109.744 25.9292 110.893 26.9886C112.042 28.048 113.458 28.5773 115.134 28.5773C117.558 28.5773 119.284 27.5344 120.308 25.4465H127.348C126.602 27.9395 125.172 29.9886 123.059 31.5939C120.946 33.1992 118.351 34 115.275 34C112.788 34 110.559 33.4462 108.585 32.3409C106.612 31.2341 105.074 29.669 103.97 27.6429C102.868 25.6175 102.316 23.2796 102.316 20.63C102.316 17.9524 102.859 15.5995 103.947 13.5719C105.034 11.5479 106.557 9.99004 108.516 8.89832C110.474 7.80875 112.727 7.26289 115.275 7.26289ZM18.8786 0.90448V6.2338H6.52493V14.4145H17.4805V19.6031H6.52493V28.2499H18.8786V33.5793H0V0.90448H18.8786ZM52.2079 1.27925V7.68306H57.9872V13.0583H52.2079V25.5873C52.2079 26.4585 52.4163 27.0898 52.836 27.4798C53.2564 27.8698 53.9626 28.0638 54.9582 28.0638H57.9872V33.5791H53.8846C48.3839 33.5791 45.6335 30.8994 45.6335 25.5392V13.0583H42.5573V7.68306H45.6335V1.27925H52.2079ZM96.3052 1.27925V7.68306H102.085V13.0583H96.3052V25.5873C96.3052 26.4585 96.5136 27.0898 96.9333 27.4798C97.3538 27.8698 98.06 28.0638 99.0555 28.0638H102.085V33.5791H97.9819C92.4812 33.5791 89.7308 30.8994 89.7308 25.5392V13.0583H86.6546V7.68306H89.7308V1.27925H96.3052ZM71.691 13.013C70.4791 13.013 69.3618 13.3074 68.3361 13.9007C67.3097 14.4925 66.4789 15.358 65.8414 16.4935C65.204 17.6327 64.886 18.9794 64.886 20.5372C64.886 22.0965 65.204 23.4583 65.8414 24.6283C66.4789 25.7962 67.3176 26.6918 68.3583 27.3159C69.3997 27.9401 70.5113 28.2496 71.691 28.2496C72.9036 28.2496 74.0374 27.9473 75.096 27.3389C76.1503 26.732 76.9904 25.8594 77.6128 24.7217C78.2331 23.584 78.5439 22.2208 78.5439 20.6306C78.5439 19.0418 78.2331 17.6786 77.6128 16.5409C76.9904 15.4033 76.1503 14.5306 75.096 13.9237C74.0374 13.3153 72.9036 13.013 71.691 13.013ZM115.088 12.6382C113.473 12.6382 112.112 13.1287 111.009 14.1098C109.906 15.0917 109.23 16.4556 108.981 18.1995H121.242C121.209 16.5181 120.604 15.1692 119.422 14.158C118.243 13.1438 116.797 12.6382 115.088 12.6382Z" fill="#45525B"/>
</svg>
