<svg width="59" height="16" viewBox="0 0 59 16" fill="none" xmlns="http://www.w3.org/2000/svg">
<path fill-rule="evenodd" clip-rule="evenodd" d="M14.5929 3.58155C16.0075 3.58155 17.136 3.93955 17.9793 4.65603C18.8222 5.37251 19.2866 6.33879 19.3726 7.55441H16.5002C16.4575 7.07644 16.261 6.6968 15.9113 6.415C15.5607 6.13227 15.0926 5.99161 14.5074 5.99161C13.9641 5.99161 13.5461 6.09228 13.253 6.29551C12.9605 6.4978 12.8137 6.78053 12.8137 7.14183C12.8137 7.54735 13.0143 7.85502 13.4137 8.0653C13.8141 8.27465 14.4359 8.48822 15.2793 8.70557C16.1366 8.92197 16.8439 9.14731 17.4011 9.37877C17.9584 9.61022 18.4396 9.96776 18.8468 10.4528C19.2541 10.9378 19.465 11.5785 19.4794 12.3745C19.4794 13.0689 19.2899 13.6917 18.9114 14.2422C18.5329 14.7916 17.9896 15.2226 17.2823 15.5335C16.575 15.8445 15.7502 15.9997 14.8074 15.9997C13.8349 15.9997 12.9637 15.8224 12.1928 15.4681C11.421 15.1139 10.8098 14.6326 10.3598 14.0248C9.90976 13.417 9.66363 12.7438 9.61997 12.0052H12.6428C12.6995 12.4691 12.9247 12.8525 13.3176 13.1564C13.71 13.4603 14.1995 13.6122 14.7856 13.6122C15.3568 13.6122 15.804 13.4965 16.1249 13.2651C16.4468 13.0336 16.6075 12.7368 16.6075 12.3745C16.6075 11.9841 16.411 11.6905 16.0177 11.4953C15.6252 11.2991 15.0001 11.0865 14.1428 10.855C13.2568 10.6377 12.5318 10.4133 11.968 10.1818C11.4028 9.95035 10.9171 9.59517 10.5098 9.11814C10.1025 8.64018 9.89908 7.99615 9.89908 7.18511C9.89908 6.51991 10.0886 5.9121 10.4671 5.36169C10.8455 4.81128 11.3889 4.37753 12.0962 4.05858C12.8035 3.74056 13.6353 3.58155 14.5929 3.58155ZM32.3389 3.58183C33.2241 3.58183 33.9996 3.76295 34.6642 4.12425C35.3288 4.48649 35.8605 4.94234 36.2608 5.49181V3.77707H39.2828V15.8048H36.2608V14.0458C35.8754 14.6103 35.3427 15.0775 34.6642 15.4458C33.9857 15.8151 33.2032 16 32.3171 16C31.3167 16 30.4065 15.7394 29.585 15.2181C28.7625 14.6978 28.1128 13.963 27.634 13.0151C27.1552 12.0671 26.9165 10.9776 26.9165 9.74693C26.9165 8.53132 27.1552 7.45354 27.634 6.5122C28.1128 5.57226 28.7625 4.84872 29.585 4.34159C30.4065 3.8354 31.3237 3.58183 32.3389 3.58183ZM53.1489 3.5816C54.2774 3.5816 55.2894 3.82717 56.182 4.31925C57.0741 4.81132 57.7675 5.5104 58.2611 6.41505C58.7539 7.3197 59 8.35749 59 9.53076C59 9.96451 58.9712 10.355 58.9145 10.7031H50.2343C50.3058 11.5715 50.6058 12.2518 51.1343 12.7439C51.6628 13.2359 52.3134 13.4815 53.0844 13.4815C54.1989 13.4815 54.9926 12.9974 55.4635 12.0274H58.7C58.3573 13.1856 57.6996 14.1368 56.7281 14.8825C55.7566 15.6281 54.5635 15.9998 53.1489 15.9998C52.0055 15.9998 50.981 15.7429 50.0731 15.2297C49.1661 14.7155 48.4588 13.9886 47.9512 13.0478C47.4446 12.1069 47.191 11.0211 47.191 9.79045C47.191 8.54661 47.4404 7.45378 47.941 6.51196C48.4407 5.57202 49.1411 4.84849 50.0415 4.34136C50.9416 3.83516 51.9777 3.5816 53.1489 3.5816ZM8.82713 0.628372V3.10382H3.14741V6.90355H8.18485V9.31314H3.14741V13.3293H8.82713V15.8047H0.147324V0.628372H8.82713ZM24.1518 0.802341V3.77692H26.8092V6.27354H24.1518V12.0924C24.1518 12.4974 24.248 12.7905 24.4407 12.9716C24.6339 13.1528 24.9585 13.2426 25.4164 13.2426H26.8092V15.8046H24.9228C22.3936 15.8046 21.129 14.5598 21.129 12.0708V6.27354H19.7144V3.77692H21.129V0.802341H24.1518ZM44.4272 0.802341V3.77692H47.0845V6.27354H44.4272V12.0924C44.4272 12.4974 44.5233 12.7905 44.716 12.9716C44.9092 13.1528 45.2338 13.2426 45.6917 13.2426H47.0845V15.8046H45.1981C42.6689 15.8046 41.4043 14.5598 41.4043 12.0708V6.27354H39.9897V3.77692H41.4043V0.802341H44.4272ZM33.1098 6.25251C32.5525 6.25251 32.0389 6.38941 31.5671 6.66509C31.0952 6.93983 30.7135 7.34158 30.4204 7.86894C30.1274 8.39818 29.9811 9.0234 29.9811 9.74693C29.9811 10.4714 30.1274 11.1041 30.4204 11.6475C30.7135 12.1899 31.0989 12.6058 31.5777 12.8956C32.0566 13.1854 32.5674 13.3293 33.1098 13.3293C33.6671 13.3293 34.1887 13.1891 34.6754 12.9064C35.1602 12.6246 35.5466 12.2191 35.8327 11.6908C36.1178 11.1625 36.2608 10.5288 36.2608 9.79021C36.2608 9.05256 36.1178 8.41935 35.8327 7.89105C35.5466 7.36275 35.1602 6.95723 34.6754 6.67544C34.1887 6.3927 33.6671 6.25251 33.1098 6.25251ZM53.0635 6.07822C52.3204 6.07822 51.6953 6.30638 51.1877 6.76223C50.681 7.21809 50.3699 7.8513 50.2556 8.66139H55.8926C55.8778 7.88046 55.5996 7.25431 55.0562 6.78434C54.5138 6.31343 53.8492 6.07822 53.0635 6.07822Z" fill="#45525B"/>
</svg>
