<svg width="18" height="20" viewBox="0 0 18 20" fill="none" xmlns="http://www.w3.org/2000/svg">
<path d="M17.6544 13.2792C17.6544 13.2792 17.6544 13.2468 17.6544 13.2792C17.6544 13.2468 17.6544 13.2468 17.6544 13.2468L14.9449 7.24026V1.98052C14.9449 0.909091 14.0842 0 13.0005 0H4.96767C3.91576 0 3.02322 0.876623 3.02322 1.98052V7.24026L0.313752 13.2468C0.281876 13.3117 0.25 13.4091 0.25 13.474V19.4156C0.25 19.7403 0.505009 20 0.82377 20C1.14253 20 1.39754 19.7403 1.39754 19.4156V17.6948H16.6025V19.4156C16.6025 19.7403 16.8575 20 17.1762 20C17.495 20 17.75 19.7403 17.75 19.4156V13.474C17.6862 13.4091 17.6862 13.3442 17.6544 13.2792ZM3.94763 7.92208H13.9886L16.2518 12.9221H1.7163L3.94763 7.92208ZM4.17076 1.98052C4.17076 1.52597 4.5214 1.13636 4.99954 1.13636H13.0005C13.4467 1.13636 13.8292 1.49351 13.8292 1.98052V6.78571H4.17076V1.98052ZM1.39754 16.5584V14.0584H16.6025V16.5584H1.39754Z" fill="#45525B"/>
</svg>
